<svg xmlns="http://www.w3.org/2000/svg" xmlns:xlink="http://www.w3.org/1999/xlink" id="body" width="768" height="960"><g transform="matrix(1.333333 0 0 1.333333 0 0)"><g><g clip-path="url(#1)"><g clip-path="url(#2)"><path transform="matrix(1 0 0 -1 0 720)" d="M28 27.18039L548 27.18039L548 27.18039L548 692L548 692L28 692z" stroke="none" fill="#FFFFFF" fill-rule="winding" /><path transform="matrix(1 0 0 -1 0 720)" d="M31.7518 604.9582L544.2482 604.9582L544.2482 604.9582L544.2482 605.7086L544.2482 605.7086L31.7518 605.7086z" stroke="none" fill="#313544" fill-rule="winding" fill-opacity="0.09411765" /><path transform="matrix(1 0 0 -1 0 720)" d="M543.4978 604.9582L544.2482 604.9582L544.2482 604.9582L544.2482 605.7085" stroke="none" fill="#EEEEEE" fill-rule="winding" /><path transform="matrix(1 0 0 -1 0 720)" d="M31.7518 605.7085L31.7518 604.9582L31.7518 604.9582L32.50216 604.9582" stroke="none" fill="#9A9A9A" fill-rule="winding" /><path transform="matrix(1 0 0 -1 0 720)" d="M31.7518 542.6782L544.2482 542.6782L544.2482 542.6782L544.2482 543.4286L544.2482 543.4286L31.7518 543.4286z" stroke="none" fill="#303544" fill-rule="winding" fill-opacity="0.09411765" /><path transform="matrix(1 0 0 -1 0 720)" d="M543.4978 542.6782L544.2482 542.6782L544.2482 542.6782L544.2482 543.4286" stroke="none" fill="#EDEDED" fill-rule="winding" /><path transform="matrix(1 0 0 -1 0 720)" d="M31.7518 543.4286L31.7518 542.6782L31.7518 542.6782L32.50216 542.6782" stroke="none" fill="#9A9A9A" fill-rule="winding" /><path transform="matrix(1 0 0 -1 0 720)" d="M31.7518 307.8153L544.2482 307.8153L544.2482 307.8153L544.2482 308.5657L544.2482 308.5657L31.7518 308.5657z" stroke="none" fill="#303544" fill-rule="winding" fill-opacity="0.09411765" /><path transform="matrix(1 0 0 -1 0 720)" d="M543.4978 307.8153L544.2482 307.8153L544.2482 307.8153L544.2482 308.5657" stroke="none" fill="#EDEDED" fill-rule="winding" /><path transform="matrix(1 0 0 -1 0 720)" d="M31.7518 308.5657L31.7518 307.8153L31.7518 307.8153L32.50216 307.8153" stroke="none" fill="#9A9A9A" fill-rule="winding" /><path transform="matrix(1 0 0 -1 0 720)" d="M31.7518 120.9755L544.2482 120.9755L544.2482 120.9755L544.2482 121.7259L544.2482 121.7259L31.7518 121.7259z" stroke="none" fill="#303544" fill-rule="winding" fill-opacity="0.09411765" /><path transform="matrix(1 0 0 -1 0 720)" d="M543.4978 120.9755L544.2482 120.9755L544.2482 120.9755L544.2482 121.7258" stroke="none" fill="#EDEDED" fill-rule="winding" /><path transform="matrix(1 0 0 -1 0 720)" d="M31.7518 121.7258L31.7518 120.9755L31.7518 120.9755L32.50216 120.9755" stroke="none" fill="#9A9A9A" fill-rule="winding" /></g></g></g></g><defs><clipPath id="1"><path d="M0 720L0 0L0 0L576 0L576 0L576 720L576 720L0 720z" /></clipPath><clipPath id="2"><path d="M28 692.8196L28 28L28 28L548 28L548 28L548 692.8196L548 692.8196L28 692.8196z" /></clipPath></defs></svg>